<svg width="43" height="43" viewBox="0 0 43 43" fill="none" xmlns="http://www.w3.org/2000/svg">
<path d="M24.9606 24.6876C23.9557 22.9864 22.4822 21.8358 20.5402 21.2357C18.5981 20.6357 16.5913 20.3357 14.5198 20.3357C12.4546 20.3357 10.4427 20.6357 8.48432 21.2357C6.5259 21.8358 5.05744 22.9864 4.07891 24.6876H24.9606ZM14.5198 17.2498C15.886 17.2498 17.3241 17.4008 18.8342 17.7028C20.3441 18.0048 21.7638 18.4881 23.0931 19.1527C24.4225 19.8174 25.5777 20.6713 26.5589 21.7144C27.5401 22.7576 28.1974 24.0289 28.5308 25.5285C28.6642 26.11 28.5436 26.6295 28.1689 27.0871C27.7943 27.5447 27.3103 27.7735 26.7171 27.7735H2.32239C1.7292 27.7735 1.24527 27.5447 0.8706 27.0871C0.49593 26.6295 0.375286 26.11 0.508668 25.5285C0.842157 24.0289 1.50476 22.7576 2.49649 21.7144C3.48821 20.6713 4.64873 19.8174 5.97806 19.1527C7.30739 18.4881 8.72177 18.0048 10.2212 17.7028C11.7207 17.4008 13.1535 17.2498 14.5198 17.2498ZM1.54298 35.2906C1.1058 35.2906 0.739343 35.1426 0.443606 34.8468C0.147869 34.5509 0 34.1843 0 33.7469C0 33.3096 0.147869 32.9432 0.443606 32.6478C0.739343 32.3524 1.10578 32.2047 1.54293 32.2047H27.4966C27.9337 32.2047 28.3002 32.3526 28.5959 32.6485C28.8916 32.9444 29.0395 33.311 29.0395 33.7483C29.0395 34.1857 28.8916 34.5521 28.5959 34.8475C28.3002 35.1429 27.9337 35.2906 27.4966 35.2906H1.54298ZM36.2559 42.8076H33.1541V39.7217H36.0343L38.9146 11.3151H19.8212L19.6947 10.2074C19.6261 9.67987 19.7623 9.21831 20.1034 8.82269C20.4444 8.42704 20.8779 8.22921 21.4038 8.22921H29.3165V1.54298C29.3165 1.1058 29.4644 0.739343 29.7603 0.443606C30.0561 0.147869 30.4227 0 30.8601 0C31.2975 0 31.6638 0.147869 31.9592 0.443606C32.2547 0.739343 32.4024 1.1058 32.4024 1.54298V8.22921H40.2478C40.8056 8.22921 41.2721 8.43066 41.6473 8.83355C42.0225 9.23644 42.1758 9.7168 42.1072 10.2746L39.0569 40.3784C38.9673 41.0905 38.656 41.6734 38.1232 42.1271C37.5905 42.5807 36.968 42.8075 36.2559 42.8075V42.8076ZM1.54293 42.8075C1.10575 42.8075 0.739309 42.6596 0.443606 42.3638C0.147869 42.0679 0 41.7013 0 41.264C0 40.8266 0.147869 40.4602 0.443606 40.1648C0.739343 39.8694 1.10578 39.7217 1.54293 39.7217H27.4966C27.9337 39.7217 28.3002 39.8696 28.5959 40.1655C28.8916 40.4613 29.0395 40.828 29.0395 41.2653C29.0395 41.7027 28.8916 42.0691 28.5959 42.3645C28.3002 42.6599 27.9337 42.8077 27.4966 42.8077H1.54293V42.8075Z" fill="white"/>
</svg>
