<svg width="40" height="40" viewBox="0 0 40 40" fill="none" xmlns="http://www.w3.org/2000/svg">
<path d="M3.33337 28.4335H20" stroke="#FFFFFF" stroke-width="2.5" stroke-miterlimit="10" stroke-linecap="round" stroke-linejoin="round"/>
<path d="M7.03333 22.5H16.3001C19.2668 22.5 20 23.2333 20 26.1667V33.0167C20 35.95 19.2668 36.6833 16.3001 36.6833H7.03333C4.06666 36.6833 3.33337 35.95 3.33337 33.0167V26.1667C3.33337 23.2333 4.06666 22.5 7.03333 22.5Z" stroke="#FFFFFF" stroke-width="2.5" stroke-linecap="round" stroke-linejoin="round"/>
<path d="M36.6667 25C36.6667 31.45 31.45 36.6667 25 36.6667L26.75 33.75" stroke="#FFFFFF" stroke-width="2.5" stroke-linecap="round" stroke-linejoin="round"/>
<path d="M3.33337 15C3.33337 8.55004 8.55004 3.33337 15 3.33337L13.2501 6.25004" stroke="#FFFFFF" stroke-width="2.5" stroke-linecap="round" stroke-linejoin="round"/>
<path d="M30.8334 18.3334C34.9755 18.3334 38.3334 14.9755 38.3334 10.8334C38.3334 6.69124 34.9755 3.33337 30.8334 3.33337C26.6912 3.33337 23.3334 6.69124 23.3334 10.8334C23.3334 14.9755 26.6912 18.3334 30.8334 18.3334Z" stroke="#FFFFFF" stroke-width="2.5" stroke-linecap="round" stroke-linejoin="round"/>
</svg>
