<svg  viewBox="0 0 157 157" fill="none" xmlns="http://www.w3.org/2000/svg">
<path d="M108.222 56.1609C107.109 56.1609 106.038 56.2365 105.001 56.3717C104.776 54.8701 104.405 53.3858 103.87 51.9292C101.796 46.2699 97.6424 41.7577 92.175 39.2238C86.7076 36.69 80.5788 36.4356 74.9196 38.5101C66.9242 41.4407 61.5033 48.404 60.3447 56.4023C59.2937 56.2453 58.2252 56.1609 57.148 56.1609C45.3222 56.1609 35.6943 65.7539 35.6376 77.5667C35.578 90.0104 46.27 99.743 58.6991 99.1441C72.9309 98.4594 80.7882 88.3837 87.7485 79.4595C93.9718 71.4786 99.3461 64.5881 108.221 64.5881C115.536 64.5881 121.47 70.6238 121.301 77.9781C121.153 84.4413 116.176 89.9232 109.753 90.6675C106.561 91.0368 103.417 90.2401 100.841 88.4768C99.9683 87.8808 98.7995 87.9854 98.0872 88.7646L95.1944 91.9293C94.3658 92.8364 94.485 94.2727 95.4749 95.001C99.1543 97.7107 103.603 99.1833 108.222 99.1833C120.083 99.1833 129.733 89.5336 129.733 77.6729C129.733 65.8106 120.083 56.1609 108.222 56.1609ZM81.1051 74.277C74.7335 82.4468 68.7035 90.1805 58.3255 90.7242C50.8375 91.1167 44.245 85.4807 44.0691 77.984C43.8961 70.6268 49.8301 64.5881 57.148 64.5881C59.8417 64.5881 62.4395 65.4109 64.6215 66.9314C65.5112 67.5522 66.6916 67.5638 67.5609 66.9154C69.2458 65.658 71.6662 63.5443 71.6487 61.7853C71.64 60.9305 70.6399 60.4043 70.6471 59.551C70.6936 54.0952 74.4515 49.189 80.1718 47.9257C82.1401 47.4911 84.2044 47.5754 86.132 48.1656C89.8404 49.3009 92.6765 52.0048 93.9791 55.5562C94.5402 57.087 94.783 58.67 94.7045 60.2691C89.2342 63.8569 85.0155 69.2632 81.1051 74.277Z" fill="#4489C8"/>
<path d="M86.0535 33H79.317V38.9515H86.0535V33Z" fill="#4489C8"/>
<path d="M100.066 39.919L94.7089 35.8347L91.1005 40.5679L96.458 44.6522L100.066 39.919Z" fill="#4489C8"/>
<path d="M107.745 51.4358L104.876 45.3407L99.4915 47.8748L102.36 53.97L107.745 51.4358Z" fill="#4489C8"/>
<path d="M68.864 44.6479L74.2216 40.5636L70.6132 35.8304L65.2557 39.9148L68.864 44.6479Z" fill="#4489C8"/>
<path d="M62.9676 53.9156L65.8359 47.8204L60.4511 45.2863L57.5827 51.3815L62.9676 53.9156Z" fill="#4489C8"/>
<path d="M42.031 124.141C40.5133 124.141 39.2529 123.633 38.247 122.618C37.2512 121.614 36.754 120.362 36.754 118.864C36.754 117.356 37.2512 116.104 38.247 115.109C39.2515 114.094 40.5133 113.587 42.031 113.587C42.9483 113.587 43.7972 113.802 44.575 114.232C45.3527 114.662 45.9589 115.244 46.3935 115.979L44.668 116.98C44.4165 116.526 44.0589 116.17 43.5952 115.914C43.1314 115.658 42.6095 115.53 42.0295 115.53C41.0439 115.53 40.2458 115.84 39.6382 116.458C39.0393 117.086 38.7398 117.888 38.7398 118.864C38.7398 119.83 39.0393 120.627 39.6382 121.255C40.2473 121.873 41.0439 122.182 42.0295 122.182C42.6095 122.182 43.1329 122.054 43.6024 121.799C44.0705 121.543 44.4267 121.192 44.668 120.748L46.3935 121.748C45.9589 122.482 45.3527 123.065 44.575 123.495C43.7972 123.925 42.9483 124.141 42.031 124.141Z" fill="#4489C8"/>
<path d="M49.6265 113.79V122.024H53.4963V123.937H47.6262V113.79H49.6265Z" fill="#4489C8"/>
<path d="M62.5412 122.618C61.5164 123.633 60.2706 124.141 58.8009 124.141C57.3312 124.141 56.0853 123.633 55.0605 122.618C54.0458 121.585 53.5385 120.333 53.5385 118.864C53.5385 117.385 54.0458 116.138 55.0605 115.123C56.0853 114.098 57.3312 113.587 58.8009 113.587C60.2691 113.587 61.5164 114.098 62.5412 115.123C63.5661 116.138 64.0778 117.385 64.0778 118.864C64.0778 120.342 63.5661 121.594 62.5412 122.618ZM56.4677 121.255C57.0855 121.873 57.8632 122.182 58.8009 122.182C59.7385 122.182 60.5162 121.873 61.1341 121.255C61.7621 120.627 62.0761 119.83 62.0761 118.864C62.0761 117.897 61.7621 117.1 61.1341 116.472C60.5061 115.844 59.7283 115.53 58.8009 115.53C57.8734 115.53 57.0957 115.844 56.4677 116.472C55.8397 117.1 55.5257 117.898 55.5257 118.864C55.5257 119.83 55.8397 120.627 56.4677 121.255Z" fill="#4489C8"/>
<path d="M69.1948 124.141C68.0638 124.141 67.1364 123.822 66.411 123.184C65.6856 122.546 65.3236 121.691 65.3236 120.618V113.79H67.3094V120.458C67.3094 120.999 67.4664 121.422 67.7804 121.727C68.0944 122.031 68.5654 122.184 69.1934 122.184C69.8214 122.184 70.2924 122.031 70.6064 121.727C70.9204 121.424 71.0774 121.001 71.0774 120.458V113.79H73.0777V120.618C73.0777 121.691 72.7157 122.546 71.9903 123.184C71.2678 123.821 70.3345 124.141 69.1948 124.141Z" fill="#4489C8"/>
<path d="M74.8774 113.79H78.9071C80.2983 113.79 81.4584 114.279 82.3858 115.254C83.3235 116.221 83.7916 117.423 83.7916 118.864C83.7916 120.304 83.3235 121.506 82.3858 122.473C81.4584 123.45 80.2983 123.937 78.9071 123.937H74.8774V113.79ZM76.8777 122.024H78.9071C79.7866 122.024 80.5018 121.735 81.0528 121.155C81.6037 120.556 81.8785 119.792 81.8785 118.865C81.8785 117.927 81.6037 117.169 81.0528 116.589C80.5018 116 79.7866 115.705 78.9071 115.705H76.8777V122.024Z" fill="#4489C8"/>
<path d="M92.3015 124.14C91.3057 124.14 90.4655 123.918 89.7793 123.473C89.0932 123.028 88.6047 122.415 88.3154 121.633L90.0264 120.633C90.4218 121.666 91.201 122.184 92.3596 122.184C92.9004 122.184 93.306 122.088 93.5778 121.895C93.8482 121.701 93.9834 121.441 93.9834 121.112C93.9834 120.755 93.8235 120.48 93.5051 120.287C93.1868 120.083 92.6155 119.867 91.7941 119.634C90.9045 119.364 90.2038 119.05 89.6921 118.692C89.0539 118.218 88.7355 117.523 88.7355 116.604C88.7355 115.677 89.0597 114.947 89.7066 114.415C90.3535 113.864 91.1414 113.59 92.0689 113.59C92.8801 113.59 93.6011 113.787 94.2291 114.184C94.8571 114.581 95.3455 115.141 95.693 115.866L94.011 116.837C93.6055 115.968 92.9571 115.533 92.0689 115.533C91.6633 115.533 91.3391 115.628 91.0978 115.815C90.8565 116.004 90.7358 116.248 90.7358 116.548C90.7358 116.866 90.8667 117.128 91.1269 117.33C91.4162 117.533 91.9293 117.746 92.6635 117.968L93.3598 118.201C93.4848 118.24 93.7029 118.321 94.0125 118.446C94.3032 118.552 94.5155 118.654 94.6507 118.75C95.1246 119.039 95.4429 119.34 95.6072 119.649C95.8587 120.054 95.9837 120.532 95.9837 121.083C95.9837 122.021 95.6406 122.765 94.9545 123.316C94.2669 123.864 93.383 124.14 92.3015 124.14Z" fill="#4D4D4D"/>
<path d="M105.753 122.618C104.728 123.633 103.482 124.141 102.012 124.141C100.543 124.141 99.2968 123.633 98.2719 122.618C97.2572 121.585 96.7499 120.333 96.7499 118.864C96.7499 117.385 97.2572 116.138 98.2719 115.123C99.2953 114.098 100.543 113.587 102.012 113.587C103.481 113.587 104.728 114.098 105.753 115.123C106.778 116.138 107.289 117.385 107.289 118.864C107.289 120.342 106.778 121.594 105.753 122.618ZM99.6791 121.255C100.297 121.873 101.076 122.182 102.012 122.182C102.95 122.182 103.728 121.873 104.345 121.255C104.973 120.627 105.287 119.83 105.287 118.864C105.287 117.897 104.973 117.1 104.345 116.472C103.717 115.844 102.94 115.53 102.012 115.53C101.085 115.53 100.307 115.844 99.6791 116.472C99.0511 117.1 98.7371 117.898 98.7371 118.864C98.7371 119.83 99.0511 120.627 99.6791 121.255Z" fill="#4D4D4D"/>
<path d="M114.754 113.79V115.703H110.695V118.109H114.638V120.022H110.695V123.936H108.695V113.789H114.754V113.79Z" fill="#4D4D4D"/>
<path d="M115.465 113.79H122.93V115.703H120.189V123.937H118.189V115.703H115.463V113.79H115.465Z" fill="#4D4D4D"/>
</svg>
