<svg width="46" height="46" viewBox="0 0 46 46" fill="none" xmlns="http://www.w3.org/2000/svg">
<path d="M27.335 30.663H17.7517" stroke="white" stroke-width="2.875" stroke-miterlimit="10" stroke-linecap="round" stroke-linejoin="round"/>
<path d="M24.2649 4.82647L24.2074 4.96063L18.6491 17.8598H13.1866C11.8833 17.8598 10.6374 18.1281 9.50659 18.6073L12.8608 10.5956L12.9374 10.404L13.0716 10.0973C13.1099 9.9823 13.1483 9.8673 13.2058 9.77147C15.7166 3.96397 18.5533 2.64147 24.2649 4.82647Z" stroke="white" stroke-width="2.875" stroke-linecap="round" stroke-linejoin="round"/>
<path d="M34.5958 18.2432C33.7333 17.9749 32.8133 17.8599 31.8933 17.8599H18.6492L24.2075 4.9607L24.265 4.82654C24.5525 4.92237 24.8208 5.05654 25.1083 5.17154L29.3442 6.95404C31.7017 7.93154 33.35 8.94737 34.3467 10.174C34.5383 10.404 34.6917 10.6149 34.8258 10.864C34.9983 11.1324 35.1325 11.4007 35.2092 11.6882C35.2858 11.8607 35.3433 12.0332 35.3817 12.1865C35.8992 13.7965 35.5925 15.7707 34.5958 18.2432Z" stroke="white" stroke-width="2.875" stroke-linecap="round" stroke-linejoin="round"/>
<path d="M41.2499 27.2136V30.9511C41.2499 31.3344 41.2307 31.7177 41.2115 32.1011C40.8474 38.7902 37.1099 42.1636 30.0182 42.1636H15.0682C14.6082 42.1636 14.1482 42.1252 13.7074 42.0677C7.61238 41.6652 4.35405 38.4069 3.95155 32.3119C3.89405 31.8711 3.85571 31.4111 3.85571 30.9511V27.2136C3.85571 23.3611 6.19405 20.0452 9.52905 18.6077C10.679 18.1286 11.9057 17.8602 13.209 17.8602H31.9157C32.8549 17.8602 33.7749 17.9944 34.6182 18.2436C38.4324 19.4127 41.2499 22.9777 41.2499 27.2136Z" stroke="white" stroke-width="2.875" stroke-linecap="round" stroke-linejoin="round"/>
<path d="M12.8608 10.5955L9.50658 18.6071C6.17158 20.0446 3.83325 23.3605 3.83325 27.213V21.5971C3.83325 16.1538 7.70492 11.6113 12.8608 10.5955Z" stroke="white" stroke-width="2.875" stroke-linecap="round" stroke-linejoin="round"/>
<path d="M41.244 21.5963V27.2121C41.244 22.9955 38.4456 19.4113 34.6123 18.2613C35.609 15.7696 35.8965 13.8146 35.4173 12.1855C35.379 12.013 35.3215 11.8405 35.2448 11.6871C38.8098 13.5271 41.244 17.303 41.244 21.5963Z" stroke="white" stroke-width="2.875" stroke-linecap="round" stroke-linejoin="round"/>
</svg>
